<svg width="40" height="29" viewBox="0 0 40 29" fill="none" xmlns="http://www.w3.org/2000/svg">
<path d="M23.8938 2H6.16581C3.9406 2 2.13672 3.80389 2.13672 6.0291V9.65528C2.13672 11.8805 3.94061 13.6844 6.16581 13.6844H15.4327C17.6579 13.6844 19.4618 15.4883 19.4618 17.7135V21.944C19.4618 24.1692 17.6579 25.9731 15.4327 25.9731H6.16582C3.94061 25.9731 2.13672 24.1703 2.13672 21.9451C2.13672 21.6263 2.13672 21.29 2.13672 20.9367" stroke="#EF5A3C" stroke-width="3.50067"/>
<path d="M25.5251 2H33.3622C35.5874 2 37.3913 3.80389 37.3913 6.0291V8.44655V9.95748C37.3913 12.1827 35.5874 13.9866 33.3622 13.9866H25.5251M25.5251 2V13.9866M25.5251 2H23.8938C21.6686 2 19.8647 3.80389 19.8647 6.0291V21.5411V23.6102C19.8647 24.9784 20.8435 26.1507 22.1897 26.3949V26.3949C23.9267 26.71 25.5251 25.3755 25.5251 23.6102V13.9866" stroke="#EF5A3C" stroke-width="3.50067"/>
<path d="M4.08412 17.5915L4.0703 17.5777C3.79194 17.3047 3.42964 17.1687 3.06734 17.1676C3.32764 16.9062 3.48701 16.5461 3.48595 16.1487C3.08859 16.1476 2.72841 16.307 2.46704 16.5673C2.46598 16.1986 2.32467 15.831 2.04206 15.5505C1.7605 15.831 1.61813 16.1986 1.61707 16.5673C1.35571 16.307 0.99553 16.1476 0.598168 16.1487C0.597105 16.5461 0.756475 16.9062 1.01678 17.1676C0.648103 17.1687 0.280491 17.31 0 17.5926C0.280491 17.8741 0.648103 18.0165 1.01678 18.0176C0.761787 18.2747 0.602418 18.6264 0.598168 19.0163V19.0365H0.618354C1.00828 19.0322 1.36102 18.8729 1.61707 18.6179C1.61813 18.9802 1.75519 19.3414 2.02718 19.6208L2.04099 19.6347L2.05481 19.6208C2.32786 19.3425 2.46492 18.9802 2.46492 18.6179C2.72203 18.8729 3.07371 19.0322 3.46364 19.0365H3.48382V19.0163C3.47957 18.6264 3.3202 18.2736 3.06521 18.0176C3.42751 18.0165 3.78875 17.8795 4.06818 17.6075L4.08412 17.5915Z" fill="#EF5A3C"/>
</svg>
