<svg width="50" height="50" viewBox="0 0 50 50" fill="none" xmlns="http://www.w3.org/2000/svg">
<rect x="27.8691" y="14.1104" width="1.63934" height="20.5521" fill="white"/>
<rect x="0.957129" y="0.957129" width="48.0857" height="48.0857" rx="14.31" fill="white" stroke="#EF5A3C" stroke-width="1.91426"/>
<ellipse cx="11.1341" cy="31.5" rx="0.979782" ry="1.1" fill="#EF5A3C"/>
<path d="M28.8623 14.1104H14.8136C12.7888 14.1104 11.1475 15.7517 11.1475 17.7765V21.125C11.1475 23.1498 12.7889 24.7912 14.8136 24.7912H21.5876C23.6123 24.7912 25.2537 26.4326 25.2537 28.4573V32.3583C25.2537 34.383 23.6123 36.0244 21.5876 36.0244H14.8136C12.7888 36.0244 11.1475 34.384 11.1475 32.3592C11.1475 32.0628 11.1475 31.7498 11.1475 31.4206" stroke="#EF5A3C" stroke-width="2.13739"/>
<path d="M30.1907 14.1104H36.1862C38.2109 14.1104 39.8523 15.7517 39.8523 17.7765V20.0032V21.4013C39.8523 23.426 38.2109 25.0674 36.1862 25.0674H30.1907M30.1907 14.1104V25.0674M30.1907 14.1104H29.2482C27.2234 14.1104 25.582 15.7517 25.582 17.7765V31.9731V34.1421C25.582 35.2375 26.3531 36.1815 27.4265 36.4001V36.4001C28.8546 36.691 30.1907 35.5996 30.1907 34.1421V25.0674" stroke="#EF5A3C" stroke-width="2.13739"/>
<path d="M12.4604 27.8528L12.4515 27.8429C12.2726 27.6459 12.0398 27.5478 11.807 27.547C11.9743 27.3584 12.0767 27.0986 12.076 26.8119C11.8206 26.8111 11.5892 26.9261 11.4212 27.1139C11.4206 26.8479 11.3298 26.5827 11.1481 26.3804C10.9672 26.5827 10.8757 26.8479 10.8751 27.1139C10.7071 26.9261 10.4757 26.8111 10.2203 26.8119C10.2196 27.0986 10.322 27.3584 10.4893 27.547C10.2524 27.5478 10.0162 27.6497 9.83594 27.8536C10.0162 28.0567 10.2524 28.1594 10.4893 28.1602C10.3255 28.3457 10.223 28.5994 10.2203 28.8807V28.8953H10.2333C10.4838 28.8922 10.7105 28.7772 10.8751 28.5933C10.8757 28.8546 10.9638 29.1152 11.1386 29.3168L11.1475 29.3268L11.1563 29.3168C11.3318 29.116 11.4199 28.8546 11.4199 28.5933C11.5851 28.7772 11.8111 28.8922 12.0616 28.8953H12.0746V28.8807C12.0719 28.5994 11.9695 28.3449 11.8056 28.1602C12.0384 28.1594 12.2706 28.0605 12.4501 27.8643L12.4604 27.8528Z" fill="#EF5A3C"/>
</svg>
