<svg width="137" height="20" viewBox="0 0 137 20" fill="none" xmlns="http://www.w3.org/2000/svg">
<path d="M8.77841 5C8.74053 4.52652 8.56297 4.1572 8.24574 3.89205C7.93324 3.62689 7.45739 3.49432 6.81818 3.49432C6.41098 3.49432 6.07718 3.54403 5.81676 3.64347C5.56108 3.73816 5.37169 3.86837 5.24858 4.03409C5.12547 4.19981 5.06155 4.3892 5.05682 4.60227C5.04735 4.77746 5.07813 4.93608 5.14915 5.07812C5.22491 5.21544 5.34328 5.34091 5.50426 5.45455C5.66525 5.56345 5.87121 5.66288 6.12216 5.75284C6.37311 5.8428 6.6714 5.9233 7.01705 5.99432L8.21023 6.25C9.01515 6.42045 9.70407 6.64536 10.277 6.92472C10.8499 7.20407 11.3187 7.53314 11.6832 7.91193C12.0478 8.28598 12.3153 8.70739 12.4858 9.17614C12.661 9.64489 12.7509 10.1562 12.7557 10.7102C12.7509 11.6667 12.5118 12.4763 12.0384 13.1392C11.5649 13.8021 10.8878 14.3063 10.0071 14.652C9.13116 14.9976 8.07765 15.1705 6.84659 15.1705C5.58239 15.1705 4.47917 14.9834 3.53693 14.6094C2.59943 14.2353 1.87027 13.66 1.34943 12.8835C0.833333 12.1023 0.572917 11.1032 0.568182 9.88636H4.31818C4.34186 10.3314 4.45313 10.7055 4.65199 11.0085C4.85085 11.3116 5.13021 11.5412 5.49006 11.6974C5.85464 11.8537 6.28788 11.9318 6.78977 11.9318C7.21117 11.9318 7.56392 11.8797 7.84801 11.7756C8.1321 11.6714 8.34754 11.527 8.49432 11.3423C8.6411 11.1577 8.71686 10.947 8.72159 10.7102C8.71686 10.4877 8.64347 10.2936 8.50142 10.1278C8.36411 9.95739 8.13684 9.80587 7.8196 9.6733C7.50237 9.53598 7.07386 9.40814 6.53409 9.28977L5.08523 8.97727C3.79735 8.69792 2.78172 8.23153 2.03835 7.57812C1.29972 6.91998 0.932765 6.02273 0.9375 4.88636C0.932765 3.96307 1.17898 3.15578 1.67614 2.46449C2.17803 1.76847 2.87169 1.22633 3.7571 0.838068C4.64725 0.44981 5.66761 0.255681 6.81818 0.255681C7.99242 0.255681 9.00805 0.452178 9.86506 0.84517C10.7221 1.23816 11.3826 1.79214 11.8466 2.5071C12.3153 3.21733 12.5521 4.0483 12.5568 5H8.77841ZM20.8203 4.09091V6.93182H13.6328V4.09091H20.8203ZM15.0249 1.47727H18.9453V11.4915C18.9453 11.643 18.9714 11.7708 19.0234 11.875C19.0755 11.9744 19.156 12.0502 19.2649 12.1023C19.3738 12.1496 19.5135 12.1733 19.6839 12.1733C19.8023 12.1733 19.9396 12.1591 20.0959 12.1307C20.2569 12.1023 20.3752 12.0786 20.451 12.0597L21.0192 14.8153C20.844 14.8674 20.593 14.9313 20.2663 15.0071C19.9444 15.0829 19.5608 15.1326 19.1158 15.1562C18.2161 15.2036 17.4609 15.1113 16.8501 14.8793C16.2393 14.6425 15.7801 14.2708 15.4723 13.7642C15.1645 13.2576 15.0154 12.6231 15.0249 11.8608V1.47727ZM29.494 10.2273V4.09091H33.4144V15H29.6928V12.9261H29.5792C29.3424 13.6222 28.9281 14.1667 28.3363 14.5597C27.7444 14.9479 27.0413 15.142 26.2269 15.142C25.4646 15.142 24.797 14.9669 24.2241 14.6165C23.6559 14.2661 23.2132 13.7831 22.896 13.1676C22.5835 12.5521 22.4248 11.8466 22.4201 11.0511V4.09091H26.3406V10.2273C26.3453 10.767 26.4826 11.1908 26.7525 11.4986C27.0271 11.8063 27.4106 11.9602 27.9031 11.9602C28.2298 11.9602 28.5115 11.8916 28.7482 11.7543C28.9897 11.6122 29.1744 11.4134 29.3022 11.1577C29.4348 10.8973 29.4987 10.5871 29.494 10.2273ZM39.3572 15.142C38.5807 15.142 37.8658 14.9384 37.2124 14.5312C36.5637 14.1241 36.0429 13.5062 35.6499 12.6776C35.2616 11.849 35.0675 10.8049 35.0675 9.54545C35.0675 8.22917 35.2711 7.15909 35.6783 6.33523C36.0902 5.51136 36.6205 4.90767 37.2692 4.52415C37.9226 4.14062 38.6091 3.94886 39.3288 3.94886C39.8686 3.94886 40.3421 4.04356 40.7493 4.23295C41.1565 4.41761 41.4974 4.66619 41.772 4.97869C42.0466 5.28646 42.255 5.625 42.397 5.99432H42.4538V0.454545H46.3743V15H42.4822V13.2102H42.397C42.2455 13.5795 42.0277 13.911 41.7436 14.2045C41.4643 14.4934 41.1233 14.723 40.7209 14.8935C40.3232 15.0592 39.8686 15.142 39.3572 15.142ZM40.8061 12.1307C41.166 12.1307 41.4737 12.0265 41.7294 11.8182C41.9898 11.6051 42.1887 11.3068 42.326 10.9233C42.468 10.535 42.5391 10.0758 42.5391 9.54545C42.5391 9.00568 42.468 8.54403 42.326 8.16051C42.1887 7.77225 41.9898 7.47633 41.7294 7.27273C41.4737 7.06439 41.166 6.96023 40.8061 6.96023C40.4463 6.96023 40.1385 7.06439 39.8828 7.27273C39.6319 7.47633 39.4377 7.77225 39.3004 8.16051C39.1679 8.54403 39.1016 9.00568 39.1016 9.54545C39.1016 10.0852 39.1679 10.5492 39.3004 10.9375C39.4377 11.321 39.6319 11.617 39.8828 11.8253C40.1385 12.0289 40.4463 12.1307 40.8061 12.1307ZM50.6854 19.0909C50.2356 19.0909 49.8071 19.0554 49.3999 18.9844C48.9927 18.9181 48.6352 18.8258 48.3274 18.7074L49.1797 15.9233C49.5017 16.0369 49.7952 16.1103 50.0604 16.1435C50.3303 16.1766 50.5599 16.1577 50.7493 16.0866C50.9434 16.0156 51.0831 15.8807 51.1683 15.6818L51.2536 15.483L47.4183 4.09091H51.5092L53.2706 11.6477H53.3842L55.174 4.09091H59.2933L55.3161 15.9091C55.1172 16.5104 54.8284 17.0502 54.4496 17.5284C54.0755 18.0114 53.5831 18.3925 52.9723 18.6719C52.3615 18.9512 51.5992 19.0909 50.6854 19.0909ZM60.3516 15V0.454545H66.63C67.7095 0.454545 68.6541 0.667613 69.4638 1.09375C70.2734 1.51989 70.9032 2.11884 71.353 2.89062C71.8028 3.66241 72.0277 4.56439 72.0277 5.59659C72.0277 6.63826 71.7957 7.54025 71.3317 8.30256C70.8724 9.06487 70.2261 9.65199 69.3928 10.0639C68.5642 10.4759 67.5959 10.6818 66.4879 10.6818H62.7379V7.61364H65.6925C66.1565 7.61364 66.5518 7.53314 66.8786 7.37216C67.21 7.20644 67.4633 6.97206 67.6385 6.66903C67.8184 6.366 67.9084 6.00852 67.9084 5.59659C67.9084 5.17992 67.8184 4.82481 67.6385 4.53125C67.4633 4.23295 67.21 4.00568 66.8786 3.84943C66.5518 3.68845 66.1565 3.60795 65.6925 3.60795H64.3004V15H60.3516ZM77.4538 0.454545V15H73.5334V0.454545H77.4538ZM82.4911 15.1705C81.7951 15.1705 81.1796 15.0568 80.6445 14.8295C80.1142 14.5975 79.6976 14.2472 79.3945 13.7784C79.0915 13.3097 78.94 12.7131 78.94 11.9886C78.94 11.392 79.0418 10.883 79.2454 10.4616C79.449 10.0355 79.7331 9.6875 80.0977 9.41761C80.4622 9.14773 80.886 8.94176 81.369 8.79972C81.8567 8.65767 82.3822 8.56534 82.9457 8.52273C83.5565 8.47538 84.0465 8.41856 84.4158 8.35227C84.7899 8.28125 85.0598 8.18419 85.2255 8.06108C85.3912 7.93324 85.4741 7.76515 85.4741 7.55682V7.52841C85.4741 7.24432 85.3652 7.02652 85.1474 6.875C84.9296 6.72348 84.6502 6.64773 84.3093 6.64773C83.9353 6.64773 83.6299 6.73059 83.3931 6.89631C83.1611 7.05729 83.0214 7.30587 82.9741 7.64205H79.3661C79.4135 6.97917 79.6242 6.36837 79.9982 5.80966C80.377 5.24621 80.9286 4.7964 81.6531 4.46023C82.3775 4.11932 83.2818 3.94886 84.3661 3.94886C85.1474 3.94886 85.8481 4.04119 86.4684 4.22585C87.0887 4.40578 87.6166 4.65909 88.0522 4.9858C88.4878 5.30777 88.8192 5.68655 89.0465 6.12216C89.2785 6.55303 89.3945 7.02178 89.3945 7.52841V15H85.7298V13.4659H85.6445C85.4267 13.8731 85.1616 14.2022 84.8491 14.4531C84.5413 14.7041 84.1886 14.8864 83.7908 15C83.3978 15.1136 82.9646 15.1705 82.4911 15.1705ZM83.7695 12.6989C84.0678 12.6989 84.3472 12.6373 84.6076 12.5142C84.8728 12.3911 85.0882 12.2135 85.2539 11.9815C85.4196 11.7495 85.5025 11.4678 85.5025 11.1364V10.2273C85.3983 10.2699 85.2871 10.3101 85.1687 10.348C85.055 10.3859 84.9319 10.4214 84.7994 10.4545C84.6715 10.4877 84.5342 10.5185 84.3874 10.5469C84.2454 10.5753 84.0962 10.6013 83.94 10.625C83.637 10.6723 83.3884 10.7505 83.1942 10.8594C83.0049 10.9635 82.8628 11.0938 82.7681 11.25C82.6781 11.4015 82.6332 11.572 82.6332 11.7614C82.6332 12.0644 82.7397 12.2964 82.9528 12.4574C83.1658 12.6184 83.4381 12.6989 83.7695 12.6989ZM95.1882 8.86364V15H91.2678V4.09091H94.9893V6.16477H95.103C95.3397 5.47348 95.7564 4.93134 96.353 4.53835C96.9543 4.14536 97.6551 3.94886 98.4553 3.94886C99.227 3.94886 99.897 4.12642 100.465 4.48153C101.038 4.83191 101.481 5.31487 101.793 5.9304C102.111 6.54593 102.267 7.24905 102.262 8.03977V15H98.3416V8.86364C98.3464 8.32386 98.209 7.90009 97.9297 7.59233C97.6551 7.28456 97.2715 7.13068 96.7791 7.13068C96.4571 7.13068 96.1754 7.2017 95.9339 7.34375C95.6972 7.48106 95.5149 7.67992 95.3871 7.94034C95.2592 8.19602 95.1929 8.50379 95.1882 8.86364ZM108.118 8.86364V15H104.197V4.09091H107.919V6.16477H108.033C108.269 5.47348 108.686 4.93134 109.283 4.53835C109.884 4.14536 110.585 3.94886 111.385 3.94886C112.157 3.94886 112.827 4.12642 113.395 4.48153C113.968 4.83191 114.411 5.31487 114.723 5.9304C115.04 6.54593 115.196 7.24905 115.192 8.03977V15H111.271V8.86364C111.276 8.32386 111.139 7.90009 110.859 7.59233C110.585 7.28456 110.201 7.13068 109.709 7.13068C109.387 7.13068 109.105 7.2017 108.864 7.34375C108.627 7.48106 108.445 7.67992 108.317 7.94034C108.189 8.19602 108.123 8.50379 108.118 8.86364ZM122.354 15.1989C121.19 15.1989 120.186 14.9763 119.343 14.5312C118.505 14.0814 117.859 13.4375 117.404 12.5994C116.954 11.7566 116.729 10.7481 116.729 9.57386C116.729 8.44697 116.957 7.46212 117.411 6.61932C117.866 5.77651 118.507 5.12074 119.336 4.65199C120.165 4.18324 121.142 3.94886 122.269 3.94886C123.093 3.94886 123.839 4.0767 124.506 4.33239C125.174 4.58807 125.745 4.95975 126.218 5.44744C126.692 5.9304 127.056 6.51752 127.312 7.20881C127.567 7.90009 127.695 8.67898 127.695 9.54545V10.4545H117.951V8.29545H124.087C124.083 7.98295 124.002 7.70833 123.846 7.47159C123.694 7.23011 123.488 7.04309 123.228 6.91051C122.972 6.7732 122.681 6.70455 122.354 6.70455C122.037 6.70455 121.746 6.7732 121.481 6.91051C121.216 7.04309 121.003 7.22775 120.842 7.46449C120.685 7.70123 120.603 7.97822 120.593 8.29545V10.625C120.593 10.9754 120.666 11.2879 120.813 11.5625C120.96 11.8371 121.171 12.0526 121.445 12.2088C121.72 12.3651 122.051 12.4432 122.44 12.4432C122.71 12.4432 122.956 12.4053 123.178 12.3295C123.406 12.2538 123.6 12.1449 123.761 12.0028C123.922 11.8561 124.04 11.6809 124.116 11.4773H127.695C127.572 12.2348 127.281 12.893 126.822 13.4517C126.362 14.0057 125.754 14.4366 124.996 14.7443C124.244 15.0473 123.363 15.1989 122.354 15.1989ZM129.295 15V4.09091H133.102V6.16477H133.216C133.414 5.39773 133.729 4.83665 134.16 4.48153C134.596 4.12642 135.105 3.94886 135.687 3.94886C135.858 3.94886 136.026 3.96307 136.191 3.99148C136.362 4.01515 136.525 4.05066 136.681 4.09801V7.44318C136.487 7.37689 136.248 7.32718 135.964 7.29403C135.68 7.26089 135.436 7.24432 135.233 7.24432C134.849 7.24432 134.503 7.33191 134.196 7.5071C133.893 7.67756 133.654 7.91903 133.478 8.23153C133.303 8.5393 133.216 8.90152 133.216 9.31818V15H129.295Z" fill="#EF5A3C"/>
</svg>
